<svg width="34" height="34" viewBox="0 0 34 34" fill="none" xmlns="http://www.w3.org/2000/svg">
<path d="M24 3.95H23.95V4V30V30.05H24H26H26.05V30V4V3.95H26H24Z" fill="#565656" stroke="white" stroke-width="0.1"/>
<path d="M28 6.95H27.95V7V27V27.05H28H30H30.05V27V7V6.95H30H28Z" fill="#6495ED" stroke="white" stroke-width="0.1"/>
<path d="M20 1.95H19.95V2V32V32.05H20H22H22.05V32V2V1.95H22H20Z" fill="#6495ED" stroke="white" stroke-width="0.1"/>
<mask id="path-4-outside-1_152_178" maskUnits="userSpaceOnUse" x="1" y="1" width="17" height="32" fill="black">
<rect fill="white" x="1" y="1" width="17" height="32"/>
<path d="M16.5 32C14.5958 32 12.7103 31.612 10.9511 30.8582C9.19187 30.1044 7.5934 28.9995 6.24695 27.6066C4.9005 26.2137 3.83244 24.5601 3.10375 22.7403C2.37505 20.9204 2 18.9698 2 17C2 15.0302 2.37505 13.0796 3.10375 11.2597C3.83244 9.43986 4.9005 7.78628 6.24695 6.3934C7.5934 5.00052 9.19187 3.89563 10.9511 3.14181C12.7103 2.38799 14.5958 2 16.5 2L16.5 17V32Z"/>
</mask>
<path d="M16.5 32C14.5958 32 12.7103 31.612 10.9511 30.8582C9.19187 30.1044 7.5934 28.9995 6.24695 27.6066C4.9005 26.2137 3.83244 24.5601 3.10375 22.7403C2.37505 20.9204 2 18.9698 2 17C2 15.0302 2.37505 13.0796 3.10375 11.2597C3.83244 9.43986 4.9005 7.78628 6.24695 6.3934C7.5934 5.00052 9.19187 3.89563 10.9511 3.14181C12.7103 2.38799 14.5958 2 16.5 2L16.5 17V32Z" fill="white"/>
<path d="M16.5 32C14.5958 32 12.7103 31.612 10.9511 30.8582C9.19187 30.1044 7.5934 28.9995 6.24695 27.6066C4.9005 26.2137 3.83244 24.5601 3.10375 22.7403C2.37505 20.9204 2 18.9698 2 17C2 15.0302 2.37505 13.0796 3.10375 11.2597C3.83244 9.43986 4.9005 7.78628 6.24695 6.3934C7.5934 5.00052 9.19187 3.89563 10.9511 3.14181C12.7103 2.38799 14.5958 2 16.5 2L16.5 17V32Z" stroke="black" stroke-width="2" stroke-linecap="round" mask="url(#path-4-outside-1_152_178)"/>
<path d="M16.5 1.95H16.45V2V32V32.05H16.5H18.5H18.55V32V2V1.95H18.5H16.5Z" fill="#6495ED" stroke="white" stroke-width="0.1"/>
<circle cx="17" cy="17" r="16.95" stroke="white" stroke-width="0.1"/>
</svg>
