<svg width="24" height="24" viewBox="0 0 24 24" fill="none" xmlns="http://www.w3.org/2000/svg">
<path fill-rule="evenodd" clip-rule="evenodd" d="M8.08331 7.33335C9.08466 7.33335 9.93869 6.70258 10.2697 5.81669H22.7533C23.1675 5.81669 23.5033 5.4809 23.5033 5.06669C23.5033 4.65247 23.1675 4.31669 22.7533 4.31669H10.315C10.0228 3.36143 9.13421 2.66669 8.08331 2.66669C7.0324 2.66669 6.14376 3.36143 5.85163 4.31669H1.24997C0.83576 4.31669 0.499973 4.65247 0.499973 5.06669C0.499973 5.4809 0.83576 5.81669 1.24997 5.81669H5.89688C6.22792 6.70258 7.08195 7.33335 8.08331 7.33335ZM6.7829 5.00002C6.7829 5.71822 7.36511 6.30043 8.08331 6.30043C8.8015 6.30043 9.38371 5.71822 9.38371 5.00002C9.38371 4.28183 8.8015 3.69961 8.08331 3.69961C7.36511 3.69961 6.7829 4.28183 6.7829 5.00002ZM10.32 19.6667C10.0332 20.6305 9.14034 21.3334 8.08333 21.3334C7.02633 21.3334 6.13348 20.6305 5.84663 19.6667H1.25C0.835787 19.6667 0.5 19.3309 0.5 18.9167C0.5 18.5025 0.835786 18.1667 1.25 18.1667H5.90321C6.23868 17.2896 7.08827 16.6667 8.08333 16.6667C9.0784 16.6667 9.92798 17.2896 10.2635 18.1667H22.7533C23.1675 18.1667 23.5033 18.5025 23.5033 18.9167C23.5033 19.3309 23.1675 19.6667 22.7533 19.6667H10.32ZM6.78293 19C6.78293 19.7182 7.36514 20.3004 8.08333 20.3004C8.80153 20.3004 9.38374 19.7182 9.38374 19C9.38374 18.2818 8.80153 17.6996 8.08333 17.6996C7.36514 17.6996 6.78293 18.2818 6.78293 19ZM15.9167 14.3334C14.8597 14.3334 13.9668 13.6305 13.68 12.6667H1.24669C0.832473 12.6667 0.496687 12.3309 0.496687 11.9167C0.496687 11.5025 0.832472 11.1667 1.24669 11.1667H13.7365C14.072 10.2896 14.9216 9.66669 15.9167 9.66669C16.9117 9.66669 17.7613 10.2896 18.0968 11.1667H22.75C23.1642 11.1667 23.5 11.5025 23.5 11.9167C23.5 12.3309 23.1642 12.6667 22.75 12.6667H18.1534C17.8665 13.6305 16.9737 14.3334 15.9167 14.3334ZM15.9167 13.3004C16.6349 13.3004 17.2171 12.7182 17.2171 12C17.2171 11.2818 16.6349 10.6996 15.9167 10.6996C15.1985 10.6996 14.6163 11.2818 14.6163 12C14.6163 12.7182 15.1985 13.3004 15.9167 13.3004Z" fill="black"/>
</svg>
