<svg width="103" height="112" viewBox="0 0 103 112" fill="none" xmlns="http://www.w3.org/2000/svg">
<path d="M8.39963 65.6249C4.07916 59.9397 1.39052 53.6611 0.421867 46.6873C-0.64307 39.0204 0.288749 31.5984 3.43873 24.4969C7.209 15.9971 13.2425 9.49262 21.4215 4.98754C26.1176 2.40086 31.1669 0.815857 36.5378 0.265064C43.7874 -0.478393 50.8449 0.288962 57.5154 3.24339C71.1174 9.26788 79.4844 19.6025 82.0461 34.1164C84.1723 46.1623 81.0751 57.1099 73.4016 66.7345C72.5819 67.7625 71.6632 68.7131 70.7372 69.7599C71.5136 70.7034 72.2549 71.602 72.9935 72.5028C73.3291 72.9121 73.6433 72.8366 74.0746 72.5823C76.1283 71.3712 77.9719 71.6747 79.4533 73.432C86.8642 82.223 94.2733 91.0154 101.681 99.8091C103.586 102.071 103.438 104.065 101.17 105.981C99.1442 107.692 97.0997 109.383 95.0206 111.03C93.1621 112.501 90.9867 112.286 89.453 110.474C81.9265 101.581 74.4126 92.6783 66.9127 83.7638C65.4124 81.9804 65.4598 80.2097 66.9729 78.4674C67.2748 78.1199 67.521 77.8256 67.1452 77.404C66.3465 76.5078 65.6847 75.4895 64.7722 74.706C44.2696 88.2713 19.8186 80.9531 8.39963 65.6249ZM63.8391 15.8409C56.1519 9.32535 47.284 6.53766 37.214 7.65504C29.479 8.51334 22.7785 11.713 17.4054 17.2095C8.56228 26.2558 5.52593 37.0968 8.59295 49.3394C12.8652 66.3929 30.1223 77.1028 47.7099 73.7824C65.2608 70.4689 77.2605 54.2124 74.8829 36.3745C73.8034 28.276 70.048 21.4734 63.8391 15.8409ZM82.4479 84.684C80.379 82.2381 78.31 79.7921 76.1679 77.2595C74.8852 78.3143 73.6996 79.3011 72.5008 80.2718C71.2472 81.2869 71.2574 81.2671 72.3261 82.5317C77.6215 88.7981 82.9056 95.0738 88.1988 101.342C89.6555 103.067 91.1301 104.777 92.6555 106.563C94.0333 105.436 95.2878 104.347 96.6125 103.349C97.3881 102.765 97.3563 102.311 96.7613 101.611C92.0091 96.0229 87.2851 90.4111 82.4479 84.684Z" fill="#145883"/>
<path d="M14.2675 53.2715C14.2675 52.772 14.6764 52.367 15.181 52.367H67.4795C67.984 52.367 68.393 52.772 68.393 53.2715V55.9847C68.393 56.4842 67.984 56.8891 67.4795 56.8891H15.181C14.6764 56.8891 14.2675 56.4842 14.2675 55.9847V53.2715Z" fill="#C7CACD"/>
<path d="M17.2364 42.5315C17.2364 41.0954 18.4122 39.9313 19.8627 39.9313C21.3132 39.9313 22.4891 41.0954 22.4891 42.5315V52.367H17.2364V42.5315Z" fill="#DA5242"/>
<path d="M27.9701 37.5572C27.9701 36.1211 29.146 34.957 30.5965 34.957C32.047 34.957 33.2228 36.1211 33.2228 37.5572V52.367H27.9701V37.5572Z" fill="#F2BE43"/>
<path d="M38.7039 34.3917C38.7039 32.9557 39.8797 31.7915 41.3302 31.7915C42.7807 31.7915 43.9566 32.9557 43.9566 34.3917V52.367H38.7039V34.3917Z" fill="#57A65D"/>
<path d="M49.4376 28.0608C49.4376 26.6247 50.6135 25.4606 52.064 25.4606C53.5145 25.4606 54.6903 26.6247 54.6903 28.0608V52.367H49.4376V28.0608Z" fill="#353535"/>
<path d="M60.1714 22.182C60.1714 20.746 61.3473 19.5818 62.7977 19.5818C64.2482 19.5818 65.4241 20.746 65.4241 22.182V52.367H60.1714V22.182Z" fill="#5387EC"/>
</svg>
