<svg width="125" height="116" viewBox="0 0 125 116" fill="none" xmlns="http://www.w3.org/2000/svg">
<path d="M0 13C0 5.8203 5.8203 0 13 0H112C119.18 0 125 5.8203 125 13V70C125 77.1797 119.18 83 112 83H13C5.82029 83 0 77.1797 0 70V13Z" fill="#145883"/>
<path d="M13 13H111V71H13V13Z" fill="white"/>
<path d="M13.875 45.6932V41.6932L29.875 34.6477V39.25L18.9205 43.6477L19.0682 43.4091V43.9773L18.9205 43.7386L29.875 48.1364V52.7386L13.875 45.6932Z" fill="black"/>
<path d="M44.8182 28.6364L37.3182 56.5H33.1477L40.6477 28.6364H44.8182Z" fill="black"/>
<path d="M108.531 45.6932L92.5312 52.7386V48.1364L103.486 43.7386L103.338 43.9773V43.4091L103.486 43.6477L92.5312 39.25V34.6477L108.531 41.6932V45.6932Z" fill="black"/>
<path d="M53 83H73V101H53V83Z" fill="#D9D9D9"/>
<path d="M35 108.5C35 104.358 38.3579 101 42.5 101H84.5C88.6421 101 92 104.358 92 108.5C92 112.642 88.6421 116 84.5 116H42.5C38.3579 116 35 112.642 35 108.5Z" fill="#D9D9D9"/>
</svg>
