<svg width="50" height="50" viewBox="0 0 94 112" fill="none" xmlns="http://www.w3.org/2000/svg">
<path fill-rule="evenodd" clip-rule="evenodd" d="M0 31C0 26.5817 3.58172 23 8 23H84C88.4183 23 92 26.5817 92 31V43H0V31ZM0 51H92V104C92 108.418 88.4183 112 84 112H8C3.58172 112 0 108.418 0 104V51ZM12 37C14.7614 37 17 34.9853 17 32.5C17 30.0147 14.7614 28 12 28C9.23858 28 7 30.0147 7 32.5C7 34.9853 9.23858 37 12 37ZM31 32.5C31 34.9853 28.7614 37 26 37C23.2386 37 21 34.9853 21 32.5C21 30.0147 23.2386 28 26 28C28.7614 28 31 30.0147 31 32.5ZM40 37C42.7614 37 45 34.9853 45 32.5C45 30.0147 42.7614 28 40 28C37.2386 28 35 30.0147 35 32.5C35 34.9853 37.2386 37 40 37Z" fill="#145883"/>
<path d="M92.5743 0.198275C83.5056 -3.83927 42.226 55.125 42.226 55.125L56.1524 65.2009C56.1524 65.2009 101.643 4.23582 92.5743 0.198275Z" fill="#6495ED"/>
<path d="M31.1431 84.2358C23.7585 77.8705 42.226 55.125 42.226 55.125L56.1524 65.2009C56.1524 65.2009 38.5277 90.6011 31.1431 84.2358Z" fill="white"/>
<path d="M14 104.218C17.0001 100.718 16.0002 75.7179 27.5001 78.2178C29.0001 89.7178 36.0001 86.7178 37.4999 86.7177C42.9999 101.218 14.0001 105.218 14 104.218Z" fill="white"/>
<path d="M41.8424 56.4207C42.0345 56.1723 42.1952 55.9672 42.3195 55.8098L55.4588 65.3163C55.3354 65.4893 55.1735 65.7148 54.9763 65.9857C54.4825 66.6644 53.7682 67.6277 52.8879 68.764C51.1262 71.0381 48.7042 73.9993 46.0562 76.7592C43.4015 79.526 40.548 82.0603 37.9244 83.5093C35.2773 84.9714 33.0636 85.2311 31.4695 83.8571C29.8429 82.455 29.5651 80.0923 30.2468 77.1135C30.9233 74.1574 32.511 70.7678 34.3497 67.541C36.1845 64.3212 38.251 61.2951 39.8608 59.0717C40.6653 57.9607 41.3546 57.0516 41.8424 56.4207ZM56.259 64.218C56.1787 64.3266 56.1073 64.4229 56.0454 64.5064L42.9188 55.0092C42.9721 54.9337 43.0326 54.848 43.1001 54.7524C43.4042 54.3222 43.8516 53.6915 44.4243 52.89C45.5697 51.287 47.2163 49.0013 49.2207 46.2708C53.2299 40.8094 58.6685 33.5714 64.389 26.461C70.1122 19.3472 76.1065 12.375 81.2286 7.43721C83.792 4.96605 86.1179 3.02311 88.0688 1.82529C89.0446 1.22621 89.9061 0.826339 90.6413 0.633384C91.3774 0.440229 91.9441 0.464985 92.371 0.65505C92.7701 0.832753 93.0388 1.16416 93.1744 1.71348C93.315 2.2833 93.3035 3.06513 93.1212 4.06052C92.7575 6.04722 91.7479 8.71161 90.2578 11.8435C87.2832 18.0955 82.462 26.0719 77.345 33.9411C72.2308 41.8058 66.8323 49.5463 62.7116 55.3216C60.6514 58.209 58.9111 60.6046 57.6859 62.2781C57.0733 63.1148 56.5896 63.7711 56.259 64.218ZM15.2086 103.848C15.064 103.856 14.9342 103.86 14.8195 103.862C15.0638 103.38 15.2685 102.784 15.4514 102.127C15.7403 101.09 15.9956 99.8165 16.2498 98.4164C16.3716 97.7461 16.4932 97.0457 16.6185 96.3249C17.0193 94.0176 17.4566 91.5005 18.0482 89.0868C18.8264 85.9121 19.854 82.998 21.3578 81.0378C22.1045 80.0645 22.9552 79.3443 23.9342 78.935C24.8253 78.5624 25.8523 78.4348 27.0533 78.6402C27.8583 84.2308 30.0139 86.5014 32.3461 87.256C33.5042 87.6307 34.6469 87.6091 35.5723 87.5036C36.0138 87.4532 36.4137 87.3826 36.7408 87.3249L36.7879 87.3166C36.9341 87.2908 37.0577 87.2696 37.1618 87.2534C38.2868 90.5351 37.5372 93.2037 35.76 95.3949C33.8922 97.6978 30.8733 99.4864 27.623 100.817C24.3825 102.145 20.9655 102.995 18.3591 103.452C17.0556 103.68 15.965 103.808 15.2086 103.848Z" stroke="#145883"/>
</svg>
